<svg xmlns="http://www.w3.org/2000/svg" viewBox="0 0 480 300" role="img" aria-labelledby="title">
  <title id="title">Criadora e Comunidade</title>
  <rect width="480" height="300" rx="24" fill="#fff9f7"/>
  <path d="M0 0h480v82c-57 33-111-18-174 10-63 29-119-20-180 5C77 117 38 111 0 92Z" fill="#f2d8e5"/>
  <circle cx="240" cy="72" r="38" fill="#fff" stroke="#7657e8" stroke-width="4"/>
  <path d="M222 79c7-25 32-26 38-4-5 14-12 22-20 22-9 0-15-6-18-18Z" fill="#db6d7c"/>
  <g fill="#fff" stroke="#e7d8ee">
    <rect x="30" y="135" width="202" height="48" rx="13"/>
    <rect x="248" y="135" width="202" height="48" rx="13"/>
    <rect x="30" y="197" width="128" height="68" rx="15"/>
    <rect x="176" y="197" width="128" height="68" rx="15"/>
    <rect x="322" y="197" width="128" height="68" rx="15"/>
  </g>
  <g fill="#7657e8">
    <circle cx="53" cy="159" r="10"/>
    <circle cx="271" cy="159" r="10"/>
    <rect x="48" y="219" width="92" height="8" rx="4" opacity=".35"/>
    <rect x="194" y="219" width="92" height="8" rx="4" opacity=".35"/>
    <rect x="340" y="219" width="92" height="8" rx="4" opacity=".35"/>
  </g>
  <g fill="#281c38" opacity=".78">
    <rect x="72" y="151" width="118" height="7" rx="3.5"/>
    <rect x="290" y="151" width="118" height="7" rx="3.5"/>
  </g>
  <rect x="148" y="281" width="184" height="7" rx="3.5" fill="#db6d7c"/>
</svg>
